<svg xmlns="http://www.w3.org/2000/svg" viewBox="0 0 120 130" width="512" height="512">
  <!-- Puddlejump app icon — Pip, happy mood, leaf color (default per REQUIREMENTS §6.4).
       Extracted from pip.svg's mood/color reference sheet, cell "leaf · happy". -->
  <rect x="-10" y="-10" width="140" height="150" fill="#FFF7E8"/>
  <ellipse cx="60" cy="10" rx="8" ry="8" fill="#3D9E50" transform="rotate(45 60 10)"/>
  <ellipse cx="70" cy="14" rx="7" ry="4" fill="#6FCB7F" transform="rotate(-20 70 14)"/>
  <ellipse cx="60" cy="72" rx="46" ry="52" fill="#6FCB7F"/>
  <ellipse cx="60" cy="80" rx="46" ry="44" fill="#6FCB7F"/>
  <ellipse cx="60" cy="84" rx="26" ry="30" fill="#FFF6E0"/>
  <ellipse cx="38" cy="118" rx="13" ry="7" fill="#5ab86d"/>
  <ellipse cx="82" cy="118" rx="13" ry="7" fill="#5ab86d"/>
  <ellipse cx="46" cy="68" rx="8" ry="10" fill="#3D2818"/>
  <ellipse cx="50" cy="64" rx="3" ry="3" fill="#fff"/>
  <ellipse cx="74" cy="68" rx="8" ry="10" fill="#3D2818"/>
  <ellipse cx="78" cy="64" rx="3" ry="3" fill="#fff"/>
  <ellipse cx="34" cy="80" rx="7" ry="4" fill="#F58FA8" opacity=".7"/>
  <ellipse cx="86" cy="80" rx="7" ry="4" fill="#F58FA8" opacity=".7"/>
  <path d="M50 92 Q60 102 70 92" stroke="#3D2818" stroke-width="3.5" fill="none" stroke-linecap="round"/>
</svg>
